<?xml version="1.0" standalone="no"?>
<!DOCTYPE svg PUBLIC "-//W3C//DTD SVG 20010904//EN"
 "http://www.w3.org/TR/2001/REC-SVG-20010904/DTD/svg10.dtd">
<svg version="1.0" xmlns="http://www.w3.org/2000/svg"
 width="1100.000000pt" height="600.000000pt" viewBox="0 0 1100.000000 600.000000"
 preserveAspectRatio="xMidYMid meet">

<g transform="translate(0.000000,600.000000) scale(0.100000,-0.100000)"
fill="#000000" stroke="none">
<path d="M2906 5908 c2 -18 40 -440 84 -938 44 -498 100 -1128 125 -1400 24
-272 92 -1037 151 -1700 59 -663 109 -1208 113 -1212 3 -4 479 -140 1058 -304
l1051 -297 114 32 c62 18 540 152 1063 299 l949 267 23 260 c53 599 355 3981
416 4668 l32 357 -2592 0 -2592 0 5 -32z m4219 -1115 c-4 -43 -17 -190 -31
-327 -13 -136 -24 -249 -24 -250 0 -2 -560 -1 -1244 1 l-1244 3 4 -38 c4 -34
54 -606 54 -617 0 -3 533 -5 1185 -5 1164 0 1185 0 1185 -19 0 -11 -4 -53 -10
-93 -8 -64 -53 -559 -135 -1523 -14 -159 -29 -310 -33 -334 l-7 -44 -75 -23
c-41 -12 -185 -52 -320 -89 -135 -37 -371 -102 -525 -145 -154 -42 -311 -85
-350 -95 l-70 -18 -656 182 c-360 99 -661 181 -667 181 -7 0 -12 1 -12 3 0 1
-18 227 -40 502 -22 275 -40 508 -40 518 0 16 22 17 324 17 l324 0 6 -47 c8
-62 35 -375 38 -431 2 -40 4 -43 42 -53 23 -6 181 -49 353 -95 172 -46 320
-84 329 -84 15 0 509 130 671 176 l51 15 6 57 c3 31 20 199 36 372 16 173 32
334 35 358 l5 42 -1126 0 c-891 0 -1125 3 -1129 13 -2 6 -22 217 -44 467 -37
416 -112 1269 -126 1433 l-6 67 1636 0 1637 0 -7 -77z"/>
</g>
</svg>
